<?xml version="1.0" encoding="UTF-8" standalone="no"?><svg xmlns="http://www.w3.org/2000/svg" xmlns:xlink="http://www.w3.org/1999/xlink" clip-rule="evenodd" stroke-miterlimit="10" viewBox="0 0 1024 768"><desc>SVG generated by Keynote</desc><defs></defs><g transform="matrix(1.00, 0.00, -0.00, -1.00, 0.0, 768.0)"><path d="M 0.0 768.0 L 1024.0 768.0 L 1024.0 0.0 L 0.0 0.0 Z M 0.0 768.0 " fill="#FEFFFF"></path><text xml:space="preserve" font-family="Helvetica-Light,Helvetica" font-size="60.0" fill="#000000" transform="matrix(1.00, 0.00, -0.00, -1.00, 351.9, 625.8)">B</text><text xml:space="preserve" font-family="Helvetica-Light,Helvetica" font-size="60.0" fill="#000000" transform="matrix(1.00, 0.00, -0.00, -1.00, 392.0, 625.8)">u</text><text xml:space="preserve" font-family="Helvetica-Light,Helvetica" font-size="60.0" fill="#000000" transform="matrix(1.00, 0.00, -0.00, -1.00, 425.3, 625.8)">i</text><text xml:space="preserve" font-family="Helvetica-Light,Helvetica" font-size="60.0" fill="#000000" transform="matrix(1.00, 0.00, -0.00, -1.00, 438.6, 625.8)">l</text><text xml:space="preserve" font-family="Helvetica-Light,Helvetica" font-size="60.0" fill="#000000" transform="matrix(1.00, 0.00, -0.00, -1.00, 452.0, 625.8)">t</text><text xml:space="preserve" font-family="Helvetica-Light,Helvetica" font-size="60.0" fill="#000000" transform="matrix(1.00, 0.00, -0.00, -1.00, 468.6, 625.8)"> </text><text xml:space="preserve" font-family="Helvetica-Light,Helvetica" font-size="60.0" fill="#000000" transform="matrix(1.00, 0.00, -0.00, -1.00, 485.3, 625.8)">f</text><text xml:space="preserve" font-family="Helvetica-Light,Helvetica" font-size="60.0" fill="#000000" transform="matrix(1.00, 0.00, -0.00, -1.00, 502.0, 625.8)">o</text><text xml:space="preserve" font-family="Helvetica-Light,Helvetica" font-size="60.0" fill="#000000" transform="matrix(1.00, 0.00, -0.00, -1.00, 535.4, 625.8)">r</text><text xml:space="preserve" font-family="Helvetica-Light,Helvetica" font-size="60.0" fill="#000000" transform="matrix(1.00, 0.00, -0.00, -1.00, 555.4, 625.8)"> </text><text xml:space="preserve" font-family="Helvetica-Light,Helvetica" font-size="60.0" fill="#000000" transform="matrix(1.00, 0.00, -0.00, -1.00, 572.0, 625.8)">I</text><text xml:space="preserve" font-family="Helvetica-Light,Helvetica" font-size="60.0" fill="#000000" transform="matrix(1.00, 0.00, -0.00, -1.00, 588.7, 625.8)">O</text><text xml:space="preserve" font-family="Helvetica-Light,Helvetica" font-size="60.0" fill="#000000" transform="matrix(1.00, 0.00, -0.00, -1.00, 635.4, 625.8)">S</text><text xml:space="preserve" font-family="Helvetica-Light,Helvetica" font-size="27.0" fill="#000000" transform="matrix(1.00, 0.00, -0.00, -1.00, 32.0, 459.7)">•</text><text xml:space="preserve" font-family="Helvetica-Light,Helvetica" font-size="36.0" fill="#000000" transform="matrix(1.00, 0.00, -0.00, -1.00, 67.0, 456.3)">T</text><text xml:space="preserve" font-family="Helvetica-Light,Helvetica" font-size="36.0" fill="#000000" transform="matrix(1.00, 0.00, -0.00, -1.00, 87.0, 456.3)">h</text><text xml:space="preserve" font-family="Helvetica-Light,Helvetica" font-size="36.0" fill="#000000" transform="matrix(1.00, 0.00, -0.00, -1.00, 107.0, 456.3)">i</text><text xml:space="preserve" font-family="Helvetica-Light,Helvetica" font-size="36.0" fill="#000000" transform="matrix(1.00, 0.00, -0.00, -1.00, 115.0, 456.3)">s</text><text xml:space="preserve" font-family="Helvetica-Light,Helvetica" font-size="36.0" fill="#000000" transform="matrix(1.00, 0.00, -0.00, -1.00, 133.0, 456.3)"> </text><text xml:space="preserve" font-family="Helvetica-Light,Helvetica" font-size="36.0" fill="#000000" transform="matrix(1.00, 0.00, -0.00, -1.00, 143.0, 456.3)">a</text><text xml:space="preserve" font-family="Helvetica-Light,Helvetica" font-size="36.0" fill="#000000" transform="matrix(1.00, 0.00, -0.00, -1.00, 163.0, 456.3)">p</text><text xml:space="preserve" font-family="Helvetica-Light,Helvetica" font-size="36.0" fill="#000000" transform="matrix(1.00, 0.00, -0.00, -1.00, 185.0, 456.3)">p</text><text xml:space="preserve" font-family="Helvetica-Light,Helvetica" font-size="36.0" fill="#000000" transform="matrix(1.00, 0.00, -0.00, -1.00, 207.0, 456.3)"> </text><text xml:space="preserve" font-family="Helvetica-Light,Helvetica" font-size="36.0" fill="#000000" transform="matrix(1.00, 0.00, -0.00, -1.00, 217.0, 456.3)">i</text><text xml:space="preserve" font-family="Helvetica-Light,Helvetica" font-size="36.0" fill="#000000" transform="matrix(1.00, 0.00, -0.00, -1.00, 225.0, 456.3)">s</text><text xml:space="preserve" font-family="Helvetica-Light,Helvetica" font-size="36.0" fill="#000000" transform="matrix(1.00, 0.00, -0.00, -1.00, 243.0, 456.3)"> </text><text xml:space="preserve" font-family="Helvetica-Light,Helvetica" font-size="36.0" fill="#000000" transform="matrix(1.00, 0.00, -0.00, -1.00, 253.0, 456.3)">b</text><text xml:space="preserve" font-family="Helvetica-Light,Helvetica" font-size="36.0" fill="#000000" transform="matrix(1.00, 0.00, -0.00, -1.00, 275.0, 456.3)">u</text><text xml:space="preserve" font-family="Helvetica-Light,Helvetica" font-size="36.0" fill="#000000" transform="matrix(1.00, 0.00, -0.00, -1.00, 295.1, 456.3)">i</text><text xml:space="preserve" font-family="Helvetica-Light,Helvetica" font-size="36.0" fill="#000000" transform="matrix(1.00, 0.00, -0.00, -1.00, 303.1, 456.3)">l</text><text xml:space="preserve" font-family="Helvetica-Light,Helvetica" font-size="36.0" fill="#000000" transform="matrix(1.00, 0.00, -0.00, -1.00, 311.0, 456.3)">t</text><text xml:space="preserve" font-family="Helvetica-Light,Helvetica" font-size="36.0" fill="#000000" transform="matrix(1.00, 0.00, -0.00, -1.00, 321.1, 456.3)"> </text><text xml:space="preserve" font-family="Helvetica-Light,Helvetica" font-size="36.0" fill="#000000" transform="matrix(1.00, 0.00, -0.00, -1.00, 331.1, 456.3)">f</text><text xml:space="preserve" font-family="Helvetica-Light,Helvetica" font-size="36.0" fill="#000000" transform="matrix(1.00, 0.00, -0.00, -1.00, 341.1, 456.3)">o</text><text xml:space="preserve" font-family="Helvetica-Light,Helvetica" font-size="36.0" fill="#000000" transform="matrix(1.00, 0.00, -0.00, -1.00, 361.1, 456.3)">r</text><text xml:space="preserve" font-family="Helvetica-Light,Helvetica" font-size="36.0" fill="#000000" transform="matrix(1.00, 0.00, -0.00, -1.00, 373.1, 456.3)"> </text><text xml:space="preserve" font-family="Helvetica-Light,Helvetica" font-size="36.0" fill="#000000" transform="matrix(1.00, 0.00, -0.00, -1.00, 383.1, 456.3)">i</text><text xml:space="preserve" font-family="Helvetica-Light,Helvetica" font-size="36.0" fill="#000000" transform="matrix(1.00, 0.00, -0.00, -1.00, 391.1, 456.3)">P</text><text xml:space="preserve" font-family="Helvetica-Light,Helvetica" font-size="36.0" fill="#000000" transform="matrix(1.00, 0.00, -0.00, -1.00, 413.1, 456.3)">h</text><text xml:space="preserve" font-family="Helvetica-Light,Helvetica" font-size="36.0" fill="#000000" transform="matrix(1.00, 0.00, -0.00, -1.00, 433.1, 456.3)">o</text><text xml:space="preserve" font-family="Helvetica-Light,Helvetica" font-size="36.0" fill="#000000" transform="matrix(1.00, 0.00, -0.00, -1.00, 453.1, 456.3)">n</text><text xml:space="preserve" font-family="Helvetica-Light,Helvetica" font-size="36.0" fill="#000000" transform="matrix(1.00, 0.00, -0.00, -1.00, 473.1, 456.3)">e</text><text xml:space="preserve" font-family="Helvetica-Light,Helvetica" font-size="36.0" fill="#000000" transform="matrix(1.00, 0.00, -0.00, -1.00, 493.1, 456.3)"> </text><text xml:space="preserve" font-family="Helvetica-Light,Helvetica" font-size="36.0" fill="#000000" transform="matrix(1.00, 0.00, -0.00, -1.00, 503.1, 456.3)">a</text><text xml:space="preserve" font-family="Helvetica-Light,Helvetica" font-size="36.0" fill="#000000" transform="matrix(1.00, 0.00, -0.00, -1.00, 523.2, 456.3)">n</text><text xml:space="preserve" font-family="Helvetica-Light,Helvetica" font-size="36.0" fill="#000000" transform="matrix(1.00, 0.00, -0.00, -1.00, 543.2, 456.3)">d</text><text xml:space="preserve" font-family="Helvetica-Light,Helvetica" font-size="36.0" fill="#000000" transform="matrix(1.00, 0.00, -0.00, -1.00, 565.2, 456.3)"> </text><text xml:space="preserve" font-family="Helvetica-Light,Helvetica" font-size="36.0" fill="#000000" transform="matrix(1.00, 0.00, -0.00, -1.00, 575.2, 456.3)">i</text><text xml:space="preserve" font-family="Helvetica-Light,Helvetica" font-size="36.0" fill="#000000" transform="matrix(1.00, 0.00, -0.00, -1.00, 583.2, 456.3)">P</text><text xml:space="preserve" font-family="Helvetica-Light,Helvetica" font-size="36.0" fill="#000000" transform="matrix(1.00, 0.00, -0.00, -1.00, 605.2, 456.3)">a</text><text xml:space="preserve" font-family="Helvetica-Light,Helvetica" font-size="36.0" fill="#000000" transform="matrix(1.00, 0.00, -0.00, -1.00, 625.2, 456.3)">d</text><text xml:space="preserve" font-family="Helvetica-Light,Helvetica" font-size="36.0" fill="#000000" transform="matrix(1.00, 0.00, -0.00, -1.00, 647.2, 456.3)">,</text><text xml:space="preserve" font-family="Helvetica-Light,Helvetica" font-size="36.0" fill="#000000" transform="matrix(1.00, 0.00, -0.00, -1.00, 657.2, 456.3)"> </text><text xml:space="preserve" font-family="Helvetica-Light,Helvetica" font-size="36.0" fill="#000000" transform="matrix(1.00, 0.00, -0.00, -1.00, 67.0, 413.3)">s</text><text xml:space="preserve" font-family="Helvetica-Light,Helvetica" font-size="36.0" fill="#000000" transform="matrix(1.00, 0.00, -0.00, -1.00, 85.0, 413.3)">o</text><text xml:space="preserve" font-family="Helvetica-Light,Helvetica" font-size="36.0" fill="#000000" transform="matrix(1.00, 0.00, -0.00, -1.00, 105.0, 413.3)">m</text><text xml:space="preserve" font-family="Helvetica-Light,Helvetica" font-size="36.0" fill="#000000" transform="matrix(1.00, 0.00, -0.00, -1.00, 135.0, 413.3)">e</text><text xml:space="preserve" font-family="Helvetica-Light,Helvetica" font-size="36.0" fill="#000000" transform="matrix(1.00, 0.00, -0.00, -1.00, 155.0, 413.3)"> </text><text xml:space="preserve" font-family="Helvetica-Light,Helvetica" font-size="36.0" fill="#000000" transform="matrix(1.00, 0.00, -0.00, -1.00, 165.0, 413.3)">o</text><text xml:space="preserve" font-family="Helvetica-Light,Helvetica" font-size="36.0" fill="#000000" transform="matrix(1.00, 0.00, -0.00, -1.00, 185.0, 413.3)">f</text><text xml:space="preserve" font-family="Helvetica-Light,Helvetica" font-size="36.0" fill="#000000" transform="matrix(1.00, 0.00, -0.00, -1.00, 195.1, 413.3)"> </text><text xml:space="preserve" font-family="Helvetica-Light,Helvetica" font-size="36.0" fill="#000000" transform="matrix(1.00, 0.00, -0.00, -1.00, 205.1, 413.3)">t</text><text xml:space="preserve" font-family="Helvetica-Light,Helvetica" font-size="36.0" fill="#000000" transform="matrix(1.00, 0.00, -0.00, -1.00, 215.1, 413.3)">h</text><text xml:space="preserve" font-family="Helvetica-Light,Helvetica" font-size="36.0" fill="#000000" transform="matrix(1.00, 0.00, -0.00, -1.00, 235.1, 413.3)">e</text><text xml:space="preserve" font-family="Helvetica-Light,Helvetica" font-size="36.0" fill="#000000" transform="matrix(1.00, 0.00, -0.00, -1.00, 255.1, 413.3)"> </text><text xml:space="preserve" font-family="Helvetica-Light,Helvetica" font-size="36.0" fill="#000000" transform="matrix(1.00, 0.00, -0.00, -1.00, 265.1, 413.3)">m</text><text xml:space="preserve" font-family="Helvetica-Light,Helvetica" font-size="36.0" fill="#000000" transform="matrix(1.00, 0.00, -0.00, -1.00, 295.1, 413.3)">o</text><text xml:space="preserve" font-family="Helvetica-Light,Helvetica" font-size="36.0" fill="#000000" transform="matrix(1.00, 0.00, -0.00, -1.00, 315.1, 413.3)">s</text><text xml:space="preserve" font-family="Helvetica-Light,Helvetica" font-size="36.0" fill="#000000" transform="matrix(1.00, 0.00, -0.00, -1.00, 333.1, 413.3)">t</text><text xml:space="preserve" font-family="Helvetica-Light,Helvetica" font-size="36.0" fill="#000000" transform="matrix(1.00, 0.00, -0.00, -1.00, 343.1, 413.3)"> </text><text xml:space="preserve" font-family="Helvetica-Light,Helvetica" font-size="36.0" fill="#000000" transform="matrix(1.00, 0.00, -0.00, -1.00, 353.1, 413.3)">p</text><text xml:space="preserve" font-family="Helvetica-Light,Helvetica" font-size="36.0" fill="#000000" transform="matrix(1.00, 0.00, -0.00, -1.00, 375.1, 413.3)">o</text><text xml:space="preserve" font-family="Helvetica-Light,Helvetica" font-size="36.0" fill="#000000" transform="matrix(1.00, 0.00, -0.00, -1.00, 395.1, 413.3)">p</text><text xml:space="preserve" font-family="Helvetica-Light,Helvetica" font-size="36.0" fill="#000000" transform="matrix(1.00, 0.00, -0.00, -1.00, 417.1, 413.3)">u</text><text xml:space="preserve" font-family="Helvetica-Light,Helvetica" font-size="36.0" fill="#000000" transform="matrix(1.00, 0.00, -0.00, -1.00, 437.2, 413.3)">l</text><text xml:space="preserve" font-family="Helvetica-Light,Helvetica" font-size="36.0" fill="#000000" transform="matrix(1.00, 0.00, -0.00, -1.00, 445.1, 413.3)">a</text><text xml:space="preserve" font-family="Helvetica-Light,Helvetica" font-size="36.0" fill="#000000" transform="matrix(1.00, 0.00, -0.00, -1.00, 465.2, 413.3)">r</text><text xml:space="preserve" font-family="Helvetica-Light,Helvetica" font-size="36.0" fill="#000000" transform="matrix(1.00, 0.00, -0.00, -1.00, 477.1, 413.3)"> </text><text xml:space="preserve" font-family="Helvetica-Light,Helvetica" font-size="36.0" fill="#000000" transform="matrix(1.00, 0.00, -0.00, -1.00, 487.2, 413.3)">e</text><text xml:space="preserve" font-family="Helvetica-Light,Helvetica" font-size="36.0" fill="#000000" transform="matrix(1.00, 0.00, -0.00, -1.00, 507.2, 413.3)">l</text><text xml:space="preserve" font-family="Helvetica-Light,Helvetica" font-size="36.0" fill="#000000" transform="matrix(1.00, 0.00, -0.00, -1.00, 515.2, 413.3)">e</text><text xml:space="preserve" font-family="Helvetica-Light,Helvetica" font-size="36.0" fill="#000000" transform="matrix(1.00, 0.00, -0.00, -1.00, 535.2, 413.3)">c</text><text xml:space="preserve" font-family="Helvetica-Light,Helvetica" font-size="36.0" fill="#000000" transform="matrix(1.00, 0.00, -0.00, -1.00, 555.2, 413.3)">t</text><text xml:space="preserve" font-family="Helvetica-Light,Helvetica" font-size="36.0" fill="#000000" transform="matrix(1.00, 0.00, -0.00, -1.00, 565.2, 413.3)">r</text><text xml:space="preserve" font-family="Helvetica-Light,Helvetica" font-size="36.0" fill="#000000" transform="matrix(1.00, 0.00, -0.00, -1.00, 576.5, 413.3)">o</text><text xml:space="preserve" font-family="Helvetica-Light,Helvetica" font-size="36.0" fill="#000000" transform="matrix(1.00, 0.00, -0.00, -1.00, 596.6, 413.3)">n</text><text xml:space="preserve" font-family="Helvetica-Light,Helvetica" font-size="36.0" fill="#000000" transform="matrix(1.00, 0.00, -0.00, -1.00, 616.6, 413.3)">i</text><text xml:space="preserve" font-family="Helvetica-Light,Helvetica" font-size="36.0" fill="#000000" transform="matrix(1.00, 0.00, -0.00, -1.00, 624.6, 413.3)">c</text><text xml:space="preserve" font-family="Helvetica-Light,Helvetica" font-size="36.0" fill="#000000" transform="matrix(1.00, 0.00, -0.00, -1.00, 644.6, 413.3)"> </text><text xml:space="preserve" font-family="Helvetica-Light,Helvetica" font-size="36.0" fill="#000000" transform="matrix(1.00, 0.00, -0.00, -1.00, 67.0, 370.3)">e</text><text xml:space="preserve" font-family="Helvetica-Light,Helvetica" font-size="36.0" fill="#000000" transform="matrix(1.00, 0.00, -0.00, -1.00, 87.0, 370.3)">d</text><text xml:space="preserve" font-family="Helvetica-Light,Helvetica" font-size="36.0" fill="#000000" transform="matrix(1.00, 0.00, -0.00, -1.00, 109.0, 370.3)">u</text><text xml:space="preserve" font-family="Helvetica-Light,Helvetica" font-size="36.0" fill="#000000" transform="matrix(1.00, 0.00, -0.00, -1.00, 129.0, 370.3)">c</text><text xml:space="preserve" font-family="Helvetica-Light,Helvetica" font-size="36.0" fill="#000000" transform="matrix(1.00, 0.00, -0.00, -1.00, 149.0, 370.3)">a</text><text xml:space="preserve" font-family="Helvetica-Light,Helvetica" font-size="36.0" fill="#000000" transform="matrix(1.00, 0.00, -0.00, -1.00, 169.1, 370.3)">t</text><text xml:space="preserve" font-family="Helvetica-Light,Helvetica" font-size="36.0" fill="#000000" transform="matrix(1.00, 0.00, -0.00, -1.00, 179.1, 370.3)">i</text><text xml:space="preserve" font-family="Helvetica-Light,Helvetica" font-size="36.0" fill="#000000" transform="matrix(1.00, 0.00, -0.00, -1.00, 187.1, 370.3)">o</text><text xml:space="preserve" font-family="Helvetica-Light,Helvetica" font-size="36.0" fill="#000000" transform="matrix(1.00, 0.00, -0.00, -1.00, 207.1, 370.3)">n</text><text xml:space="preserve" font-family="Helvetica-Light,Helvetica" font-size="36.0" fill="#000000" transform="matrix(1.00, 0.00, -0.00, -1.00, 227.1, 370.3)">a</text><text xml:space="preserve" font-family="Helvetica-Light,Helvetica" font-size="36.0" fill="#000000" transform="matrix(1.00, 0.00, -0.00, -1.00, 247.1, 370.3)">l</text><text xml:space="preserve" font-family="Helvetica-Light,Helvetica" font-size="36.0" fill="#000000" transform="matrix(1.00, 0.00, -0.00, -1.00, 255.1, 370.3)"> </text><text xml:space="preserve" font-family="Helvetica-Light,Helvetica" font-size="36.0" fill="#000000" transform="matrix(1.00, 0.00, -0.00, -1.00, 265.1, 370.3)">p</text><text xml:space="preserve" font-family="Helvetica-Light,Helvetica" font-size="36.0" fill="#000000" transform="matrix(1.00, 0.00, -0.00, -1.00, 287.1, 370.3)">l</text><text xml:space="preserve" font-family="Helvetica-Light,Helvetica" font-size="36.0" fill="#000000" transform="matrix(1.00, 0.00, -0.00, -1.00, 295.1, 370.3)">a</text><text xml:space="preserve" font-family="Helvetica-Light,Helvetica" font-size="36.0" fill="#000000" transform="matrix(1.00, 0.00, -0.00, -1.00, 315.1, 370.3)">t</text><text xml:space="preserve" font-family="Helvetica-Light,Helvetica" font-size="36.0" fill="#000000" transform="matrix(1.00, 0.00, -0.00, -1.00, 325.1, 370.3)">f</text><text xml:space="preserve" font-family="Helvetica-Light,Helvetica" font-size="36.0" fill="#000000" transform="matrix(1.00, 0.00, -0.00, -1.00, 335.1, 370.3)">o</text><text xml:space="preserve" font-family="Helvetica-Light,Helvetica" font-size="36.0" fill="#000000" transform="matrix(1.00, 0.00, -0.00, -1.00, 355.1, 370.3)">r</text><text xml:space="preserve" font-family="Helvetica-Light,Helvetica" font-size="36.0" fill="#000000" transform="matrix(1.00, 0.00, -0.00, -1.00, 367.8, 370.3)">m</text><text xml:space="preserve" font-family="Helvetica-Light,Helvetica" font-size="36.0" fill="#000000" transform="matrix(1.00, 0.00, -0.00, -1.00, 397.8, 370.3)">s</text><text xml:space="preserve" font-family="Helvetica-Light,Helvetica" font-size="36.0" fill="#000000" transform="matrix(1.00, 0.00, -0.00, -1.00, 415.8, 370.3)"> </text><text xml:space="preserve" font-family="Helvetica-Light,Helvetica" font-size="36.0" fill="#000000" transform="matrix(1.00, 0.00, -0.00, -1.00, 425.8, 370.3)">a</text><text xml:space="preserve" font-family="Helvetica-Light,Helvetica" font-size="36.0" fill="#000000" transform="matrix(1.00, 0.00, -0.00, -1.00, 445.8, 370.3)">v</text><text xml:space="preserve" font-family="Helvetica-Light,Helvetica" font-size="36.0" fill="#000000" transform="matrix(1.00, 0.00, -0.00, -1.00, 463.8, 370.3)">a</text><text xml:space="preserve" font-family="Helvetica-Light,Helvetica" font-size="36.0" fill="#000000" transform="matrix(1.00, 0.00, -0.00, -1.00, 483.8, 370.3)">i</text><text xml:space="preserve" font-family="Helvetica-Light,Helvetica" font-size="36.0" fill="#000000" transform="matrix(1.00, 0.00, -0.00, -1.00, 491.8, 370.3)">l</text><text xml:space="preserve" font-family="Helvetica-Light,Helvetica" font-size="36.0" fill="#000000" transform="matrix(1.00, 0.00, -0.00, -1.00, 499.8, 370.3)">a</text><text xml:space="preserve" font-family="Helvetica-Light,Helvetica" font-size="36.0" fill="#000000" transform="matrix(1.00, 0.00, -0.00, -1.00, 519.8, 370.3)">b</text><text xml:space="preserve" font-family="Helvetica-Light,Helvetica" font-size="36.0" fill="#000000" transform="matrix(1.00, 0.00, -0.00, -1.00, 541.8, 370.3)">l</text><text xml:space="preserve" font-family="Helvetica-Light,Helvetica" font-size="36.0" fill="#000000" transform="matrix(1.00, 0.00, -0.00, -1.00, 549.8, 370.3)">e</text><text xml:space="preserve" font-family="Helvetica-Light,Helvetica" font-size="36.0" fill="#000000" transform="matrix(1.00, 0.00, -0.00, -1.00, 569.8, 370.3)">.</text><text xml:space="preserve" font-family="Helvetica-Light,Helvetica" font-size="36.0" fill="#000000" transform="matrix(1.00, 0.00, -0.00, -1.00, 579.8, 370.3)"> </text><text xml:space="preserve" font-family="Helvetica-Light,Helvetica" font-size="36.0" fill="#000000" transform="matrix(1.00, 0.00, -0.00, -1.00, 589.8, 370.3)">T</text><text xml:space="preserve" font-family="Helvetica-Light,Helvetica" font-size="36.0" fill="#000000" transform="matrix(1.00, 0.00, -0.00, -1.00, 609.8, 370.3)">h</text><text xml:space="preserve" font-family="Helvetica-Light,Helvetica" font-size="36.0" fill="#000000" transform="matrix(1.00, 0.00, -0.00, -1.00, 629.9, 370.3)">i</text><text xml:space="preserve" font-family="Helvetica-Light,Helvetica" font-size="36.0" fill="#000000" transform="matrix(1.00, 0.00, -0.00, -1.00, 637.9, 370.3)">s</text><text xml:space="preserve" font-family="Helvetica-Light,Helvetica" font-size="36.0" fill="#000000" transform="matrix(1.00, 0.00, -0.00, -1.00, 655.9, 370.3)"> </text><text xml:space="preserve" font-family="Helvetica-Light,Helvetica" font-size="36.0" fill="#000000" transform="matrix(1.00, 0.00, -0.00, -1.00, 67.0, 327.3)">h</text><text xml:space="preserve" font-family="Helvetica-Light,Helvetica" font-size="36.0" fill="#000000" transform="matrix(1.00, 0.00, -0.00, -1.00, 87.0, 327.3)">e</text><text xml:space="preserve" font-family="Helvetica-Light,Helvetica" font-size="36.0" fill="#000000" transform="matrix(1.00, 0.00, -0.00, -1.00, 107.0, 327.3)">l</text><text xml:space="preserve" font-family="Helvetica-Light,Helvetica" font-size="36.0" fill="#000000" transform="matrix(1.00, 0.00, -0.00, -1.00, 115.0, 327.3)">p</text><text xml:space="preserve" font-family="Helvetica-Light,Helvetica" font-size="36.0" fill="#000000" transform="matrix(1.00, 0.00, -0.00, -1.00, 137.0, 327.3)">s</text><text xml:space="preserve" font-family="Helvetica-Light,Helvetica" font-size="36.0" fill="#000000" transform="matrix(1.00, 0.00, -0.00, -1.00, 155.0, 327.3)"> </text><text xml:space="preserve" font-family="Helvetica-Light,Helvetica" font-size="36.0" fill="#000000" transform="matrix(1.00, 0.00, -0.00, -1.00, 165.0, 327.3)">t</text><text xml:space="preserve" font-family="Helvetica-Light,Helvetica" font-size="36.0" fill="#000000" transform="matrix(1.00, 0.00, -0.00, -1.00, 175.0, 327.3)">o</text><text xml:space="preserve" font-family="Helvetica-Light,Helvetica" font-size="36.0" fill="#000000" transform="matrix(1.00, 0.00, -0.00, -1.00, 195.1, 327.3)"> </text><text xml:space="preserve" font-family="Helvetica-Light,Helvetica" font-size="36.0" fill="#000000" transform="matrix(1.00, 0.00, -0.00, -1.00, 205.1, 327.3)">m</text><text xml:space="preserve" font-family="Helvetica-Light,Helvetica" font-size="36.0" fill="#000000" transform="matrix(1.00, 0.00, -0.00, -1.00, 235.0, 327.3)">a</text><text xml:space="preserve" font-family="Helvetica-Light,Helvetica" font-size="36.0" fill="#000000" transform="matrix(1.00, 0.00, -0.00, -1.00, 255.1, 327.3)">k</text><text xml:space="preserve" font-family="Helvetica-Light,Helvetica" font-size="36.0" fill="#000000" transform="matrix(1.00, 0.00, -0.00, -1.00, 273.1, 327.3)">e</text><text xml:space="preserve" font-family="Helvetica-Light,Helvetica" font-size="36.0" fill="#000000" transform="matrix(1.00, 0.00, -0.00, -1.00, 293.1, 327.3)"> </text><text xml:space="preserve" font-family="Helvetica-Light,Helvetica" font-size="36.0" fill="#000000" transform="matrix(1.00, 0.00, -0.00, -1.00, 303.1, 327.3)">s</text><text xml:space="preserve" font-family="Helvetica-Light,Helvetica" font-size="36.0" fill="#000000" transform="matrix(1.00, 0.00, -0.00, -1.00, 321.1, 327.3)">u</text><text xml:space="preserve" font-family="Helvetica-Light,Helvetica" font-size="36.0" fill="#000000" transform="matrix(1.00, 0.00, -0.00, -1.00, 341.1, 327.3)">r</text><text xml:space="preserve" font-family="Helvetica-Light,Helvetica" font-size="36.0" fill="#000000" transform="matrix(1.00, 0.00, -0.00, -1.00, 352.4, 327.3)">e</text><text xml:space="preserve" font-family="Helvetica-Light,Helvetica" font-size="36.0" fill="#000000" transform="matrix(1.00, 0.00, -0.00, -1.00, 372.5, 327.3)"> </text><text xml:space="preserve" font-family="Helvetica-Light,Helvetica" font-size="36.0" fill="#000000" transform="matrix(1.00, 0.00, -0.00, -1.00, 382.5, 327.3)">t</text><text xml:space="preserve" font-family="Helvetica-Light,Helvetica" font-size="36.0" fill="#000000" transform="matrix(1.00, 0.00, -0.00, -1.00, 392.5, 327.3)">h</text><text xml:space="preserve" font-family="Helvetica-Light,Helvetica" font-size="36.0" fill="#000000" transform="matrix(1.00, 0.00, -0.00, -1.00, 412.5, 327.3)">a</text><text xml:space="preserve" font-family="Helvetica-Light,Helvetica" font-size="36.0" fill="#000000" transform="matrix(1.00, 0.00, -0.00, -1.00, 432.5, 327.3)">t</text><text xml:space="preserve" font-family="Helvetica-Light,Helvetica" font-size="36.0" fill="#000000" transform="matrix(1.00, 0.00, -0.00, -1.00, 442.5, 327.3)"> </text><text xml:space="preserve" font-family="Helvetica-LightOblique,Helvetica" font-style="italic" font-size="36.0" fill="#000000" transform="matrix(1.00, 0.00, -0.00, -1.00, 452.5, 327.3)">M</text><text xml:space="preserve" font-family="Helvetica-LightOblique,Helvetica" font-style="italic" font-size="36.0" fill="#000000" transform="matrix(1.00, 0.00, -0.00, -1.00, 482.5, 327.3)">e</text><text xml:space="preserve" font-family="Helvetica-LightOblique,Helvetica" font-style="italic" font-size="36.0" fill="#000000" transform="matrix(1.00, 0.00, -0.00, -1.00, 502.5, 327.3)">i</text><text xml:space="preserve" font-family="Helvetica-LightOblique,Helvetica" font-style="italic" font-size="36.0" fill="#000000" transform="matrix(1.00, 0.00, -0.00, -1.00, 510.5, 327.3)">o</text><text xml:space="preserve" font-family="Helvetica-LightOblique,Helvetica" font-style="italic" font-size="36.0" fill="#000000" transform="matrix(1.00, 0.00, -0.00, -1.00, 530.5, 327.3)">s</text><text xml:space="preserve" font-family="Helvetica-LightOblique,Helvetica" font-style="italic" font-size="36.0" fill="#000000" transform="matrix(1.00, 0.00, -0.00, -1.00, 548.5, 327.3)">i</text><text xml:space="preserve" font-family="Helvetica-LightOblique,Helvetica" font-style="italic" font-size="36.0" fill="#000000" transform="matrix(1.00, 0.00, -0.00, -1.00, 556.5, 327.3)">s</text><text xml:space="preserve" font-family="Helvetica-LightOblique,Helvetica" font-style="italic" font-size="36.0" fill="#000000" transform="matrix(1.00, 0.00, -0.00, -1.00, 574.5, 327.3)"> </text><text xml:space="preserve" font-family="Helvetica-Light,Helvetica" font-size="36.0" fill="#000000" transform="matrix(1.00, 0.00, -0.00, -1.00, 584.5, 327.3)">w</text><text xml:space="preserve" font-family="Helvetica-Light,Helvetica" font-size="36.0" fill="#000000" transform="matrix(1.00, 0.00, -0.00, -1.00, 610.5, 327.3)">i</text><text xml:space="preserve" font-family="Helvetica-Light,Helvetica" font-size="36.0" fill="#000000" transform="matrix(1.00, 0.00, -0.00, -1.00, 618.5, 327.3)">l</text><text xml:space="preserve" font-family="Helvetica-Light,Helvetica" font-size="36.0" fill="#000000" transform="matrix(1.00, 0.00, -0.00, -1.00, 626.5, 327.3)">l</text><text xml:space="preserve" font-family="Helvetica-Light,Helvetica" font-size="36.0" fill="#000000" transform="matrix(1.00, 0.00, -0.00, -1.00, 634.5, 327.3)"> </text><text xml:space="preserve" font-family="Helvetica-Light,Helvetica" font-size="36.0" fill="#000000" transform="matrix(1.00, 0.00, -0.00, -1.00, 644.5, 327.3)">b</text><text xml:space="preserve" font-family="Helvetica-Light,Helvetica" font-size="36.0" fill="#000000" transform="matrix(1.00, 0.00, -0.00, -1.00, 666.5, 327.3)">e</text><text xml:space="preserve" font-family="Helvetica-Light,Helvetica" font-size="36.0" fill="#000000" transform="matrix(1.00, 0.00, -0.00, -1.00, 686.5, 327.3)"> </text><text xml:space="preserve" font-family="Helvetica-Light,Helvetica" font-size="36.0" fill="#000000" transform="matrix(1.00, 0.00, -0.00, -1.00, 67.0, 284.3)">r</text><text xml:space="preserve" font-family="Helvetica-Light,Helvetica" font-size="36.0" fill="#000000" transform="matrix(1.00, 0.00, -0.00, -1.00, 78.3, 284.3)">e</text><text xml:space="preserve" font-family="Helvetica-Light,Helvetica" font-size="36.0" fill="#000000" transform="matrix(1.00, 0.00, -0.00, -1.00, 98.4, 284.3)">a</text><text xml:space="preserve" font-family="Helvetica-Light,Helvetica" font-size="36.0" fill="#000000" transform="matrix(1.00, 0.00, -0.00, -1.00, 118.4, 284.3)">d</text><text xml:space="preserve" font-family="Helvetica-Light,Helvetica" font-size="36.0" fill="#000000" transform="matrix(1.00, 0.00, -0.00, -1.00, 140.4, 284.3)">i</text><text xml:space="preserve" font-family="Helvetica-Light,Helvetica" font-size="36.0" fill="#000000" transform="matrix(1.00, 0.00, -0.00, -1.00, 148.4, 284.3)">l</text><text xml:space="preserve" font-family="Helvetica-Light,Helvetica" font-size="36.0" fill="#000000" transform="matrix(1.00, 0.00, -0.00, -1.00, 156.4, 284.3)">y</text><text xml:space="preserve" font-family="Helvetica-Light,Helvetica" font-size="36.0" fill="#000000" transform="matrix(1.00, 0.00, -0.00, -1.00, 174.4, 284.3)"> </text><text xml:space="preserve" font-family="Helvetica-Light,Helvetica" font-size="36.0" fill="#000000" transform="matrix(1.00, 0.00, -0.00, -1.00, 184.4, 284.3)">a</text><text xml:space="preserve" font-family="Helvetica-Light,Helvetica" font-size="36.0" fill="#000000" transform="matrix(1.00, 0.00, -0.00, -1.00, 204.4, 284.3)">c</text><text xml:space="preserve" font-family="Helvetica-Light,Helvetica" font-size="36.0" fill="#000000" transform="matrix(1.00, 0.00, -0.00, -1.00, 224.4, 284.3)">c</text><text xml:space="preserve" font-family="Helvetica-Light,Helvetica" font-size="36.0" fill="#000000" transform="matrix(1.00, 0.00, -0.00, -1.00, 244.4, 284.3)">e</text><text xml:space="preserve" font-family="Helvetica-Light,Helvetica" font-size="36.0" fill="#000000" transform="matrix(1.00, 0.00, -0.00, -1.00, 264.4, 284.3)">s</text><text xml:space="preserve" font-family="Helvetica-Light,Helvetica" font-size="36.0" fill="#000000" transform="matrix(1.00, 0.00, -0.00, -1.00, 282.4, 284.3)">s</text><text xml:space="preserve" font-family="Helvetica-Light,Helvetica" font-size="36.0" fill="#000000" transform="matrix(1.00, 0.00, -0.00, -1.00, 300.4, 284.3)">i</text><text xml:space="preserve" font-family="Helvetica-Light,Helvetica" font-size="36.0" fill="#000000" transform="matrix(1.00, 0.00, -0.00, -1.00, 308.4, 284.3)">b</text><text xml:space="preserve" font-family="Helvetica-Light,Helvetica" font-size="36.0" fill="#000000" transform="matrix(1.00, 0.00, -0.00, -1.00, 330.4, 284.3)">l</text><text xml:space="preserve" font-family="Helvetica-Light,Helvetica" font-size="36.0" fill="#000000" transform="matrix(1.00, 0.00, -0.00, -1.00, 338.4, 284.3)">e</text><text xml:space="preserve" font-family="Helvetica-Light,Helvetica" font-size="36.0" fill="#000000" transform="matrix(1.00, 0.00, -0.00, -1.00, 358.4, 284.3)"> </text><text xml:space="preserve" font-family="Helvetica-Light,Helvetica" font-size="36.0" fill="#000000" transform="matrix(1.00, 0.00, -0.00, -1.00, 368.4, 284.3)">o</text><text xml:space="preserve" font-family="Helvetica-Light,Helvetica" font-size="36.0" fill="#000000" transform="matrix(1.00, 0.00, -0.00, -1.00, 388.4, 284.3)">n</text><text xml:space="preserve" font-family="Helvetica-Light,Helvetica" font-size="36.0" fill="#000000" transform="matrix(1.00, 0.00, -0.00, -1.00, 408.5, 284.3)"> </text><text xml:space="preserve" font-family="Helvetica-Light,Helvetica" font-size="36.0" fill="#000000" transform="matrix(1.00, 0.00, -0.00, -1.00, 418.5, 284.3)">t</text><text xml:space="preserve" font-family="Helvetica-Light,Helvetica" font-size="36.0" fill="#000000" transform="matrix(1.00, 0.00, -0.00, -1.00, 428.5, 284.3)">h</text><text xml:space="preserve" font-family="Helvetica-Light,Helvetica" font-size="36.0" fill="#000000" transform="matrix(1.00, 0.00, -0.00, -1.00, 448.5, 284.3)">e</text><text xml:space="preserve" font-family="Helvetica-Light,Helvetica" font-size="36.0" fill="#000000" transform="matrix(1.00, 0.00, -0.00, -1.00, 468.5, 284.3)"> </text><text xml:space="preserve" font-family="Helvetica-Light,Helvetica" font-size="36.0" fill="#000000" transform="matrix(1.00, 0.00, -0.00, -1.00, 478.5, 284.3)">A</text><text xml:space="preserve" font-family="Helvetica-Light,Helvetica" font-size="36.0" fill="#000000" transform="matrix(1.00, 0.00, -0.00, -1.00, 502.5, 284.3)">p</text><text xml:space="preserve" font-family="Helvetica-Light,Helvetica" font-size="36.0" fill="#000000" transform="matrix(1.00, 0.00, -0.00, -1.00, 524.5, 284.3)">p</text><text xml:space="preserve" font-family="Helvetica-Light,Helvetica" font-size="36.0" fill="#000000" transform="matrix(1.00, 0.00, -0.00, -1.00, 546.5, 284.3)"> </text><text xml:space="preserve" font-family="Helvetica-Light,Helvetica" font-size="36.0" fill="#000000" transform="matrix(1.00, 0.00, -0.00, -1.00, 556.5, 284.3)">S</text><text xml:space="preserve" font-family="Helvetica-Light,Helvetica" font-size="36.0" fill="#000000" transform="matrix(1.00, 0.00, -0.00, -1.00, 578.5, 284.3)">t</text><text xml:space="preserve" font-family="Helvetica-Light,Helvetica" font-size="36.0" fill="#000000" transform="matrix(1.00, 0.00, -0.00, -1.00, 588.5, 284.3)">o</text><text xml:space="preserve" font-family="Helvetica-Light,Helvetica" font-size="36.0" fill="#000000" transform="matrix(1.00, 0.00, -0.00, -1.00, 608.5, 284.3)">r</text><text xml:space="preserve" font-family="Helvetica-Light,Helvetica" font-size="36.0" fill="#000000" transform="matrix(1.00, 0.00, -0.00, -1.00, 619.9, 284.3)">e</text><text xml:space="preserve" font-family="Helvetica-Light,Helvetica" font-size="36.0" fill="#000000" transform="matrix(1.00, 0.00, -0.00, -1.00, 639.9, 284.3)">.</text><image xlink:href="8F5B71CC7AC30875F34D5D40C8007344.png" width="256.00" height="256.00" transform="matrix(0.94, 0.00, -0.00, -0.94, 708.0, 329.0)"></image></g></svg>